<svg xmlns="http://www.w3.org/2000/svg" xmlns:xlink="http://www.w3.org/1999/xlink" viewBox="0 0 1300 1300">
  <defs>
    <filter id="Path_38" x="519.37" y="1081.163" width="69.02" height="51.337" filterUnits="userSpaceOnUse">
      <feOffset dy="3" input="SourceAlpha"/>
      <feGaussianBlur stdDeviation="3" result="blur"/>
      <feFlood flood-opacity="0.161"/>
      <feComposite operator="in" in2="blur"/>
      <feComposite in="SourceGraphic"/>
    </filter>
    <filter id="Path_39" x="376" y="204" width="488.251" height="866.836" filterUnits="userSpaceOnUse">
      <feOffset dy="3" input="SourceAlpha"/>
      <feGaussianBlur stdDeviation="3" result="blur-2"/>
      <feFlood flood-opacity="0.161"/>
      <feComposite operator="in" in2="blur-2"/>
      <feComposite in="SourceGraphic"/>
    </filter>
    <filter id="Path_40" x="862.26" y="727.115" width="30.825" height="35.615" filterUnits="userSpaceOnUse">
      <feOffset dy="3" input="SourceAlpha"/>
      <feGaussianBlur stdDeviation="3" result="blur-3"/>
      <feFlood flood-opacity="0.161"/>
      <feComposite operator="in" in2="blur-3"/>
      <feComposite in="SourceGraphic"/>
    </filter>
    <filter id="Path_41" x="948.734" y="740.729" width="27.521" height="29.972" filterUnits="userSpaceOnUse">
      <feOffset dy="3" input="SourceAlpha"/>
      <feGaussianBlur stdDeviation="3" result="blur-4"/>
      <feFlood flood-opacity="0.161"/>
      <feComposite operator="in" in2="blur-4"/>
      <feComposite in="SourceGraphic"/>
    </filter>
    <filter id="Path_8" x="0" y="0" filterUnits="userSpaceOnUse">
      <feOffset dy="3" input="SourceAlpha"/>
      <feGaussianBlur stdDeviation="3" result="blur-5"/>
      <feFlood flood-opacity="0.161"/>
      <feComposite operator="in" in2="blur-5"/>
      <feComposite in="SourceGraphic"/>
    </filter>>
    <filter id="Union_3" x="0" y="0" width="130.215" height="152.57" filterUnits="userSpaceOnUse">
      <feOffset dy="3" input="SourceAlpha"/>
      <feGaussianBlur stdDeviation="3" result="blur-6"/>
      <feFlood flood-opacity="0.161"/>
      <feComposite operator="in" in2="blur-6"/>
      <feComposite in="SourceGraphic"/>
    </filter>
    <clipPath id="clip-Artboard_1">
      <rect width="1300" height="1400"/>
    </clipPath>
  </defs>
  <g id="koreaMap" data-name="Artboard – 1" clip-path="url(#clip-Artboard_1)" transform="translate(0, -100)">
    <g id="bg" transform="translate(385 209.997)">
      <g transform="matrix(1, 0, 0, 1, -385, -210)" filter="url(#Path_38)">
        <path id="Path_38-2" data-name="Path 38" d="M194.37,890.6v-.12c-14.71-14.77-30.43-17.88-51-6.15v.14h0v.14h0v.14h0v.14h0v.14h0v.14h0v.14h0v.15h0v.14h0v.14h0v.14h0v.14h0v.14h0v.14h0v.14h0v.15h0v.14h0v.14h0v.14h0v.14h0v.14h0v.14h0v.15h0v.14h0v.14h0V888h0v.14h0v.14h0v.14h0v.14h0v.15h0a60.211,60.211,0,0,0,3.28,9.59c4,8.42,10.11,13.81,20.22,11.77,7.78-1.57,16,0,23.52-3.18,1.32-4,2.64-7.92,4-12h0v-.12h0v-.12h0v-.12h0v-.12h0v-.12h0v-.12h0v-.13h0v-.12h0v-.12h0v-.12h0v-.12h0v-.12h0v-.12h0v-.13h0v-.12h0v-.12h0v-.12h0v-.12h0v-.12h0v-.12h0v-.12h0v-.13h0v-.12h0v-.12h0v-.12h0v-.12h0v-.12h0v-.12h0v-.12h0v-.13Z" transform="translate(385 210)" fill="#ccc"/>
      </g>
      <g transform="matrix(1, 0, 0, 1, -385, -210)" filter="url(#Path_39)">
        <path id="Path_39-2" data-name="Path 39" d="M469.55,70c-3.11-11.72-13.46-19.91-14.5-34.89L450.72,43c-6.42-6.5-13-12.71-14.09-20.88a24.408,24.408,0,0,1,1.83-6.37h-.06l.06-.14h-.06l.06-.14h-.06l.06-.14h-.06l.06-.14h-.06l.06-.14h-.06l.06-.15h-.06l.06-.15h-.06l.06-.15h-.06l.06-.14h-.06l.06-.14h-.06l.06-.14h-.06l.06-.14h-.06l.06-.15h-.06l.06-.15h-.06l.06-.15h-.06l.06-.14h-.06l.06-.14h-.06l.06-.14h-.06l.06-.14h-.06l.06-.14h-.06l.06-.15h-.06l.06-.15h-.06l.06-.15h-.06l.06-.14h-.06l.06-.14h-.06l.06-.14h-.06l.06-.14h-.06l.06-.14h-.06l.06-.15h-.06l.06-.15h-.06l.06-.15C427.9,7.84,421.25-3.51,411,1.08c-10.1,17.47-8.89,36.26-11.7,54.13-8.65.78-16.85,10.64-25.08-1.71-5.5,7.34-14.16,13.78-13.93,19.88v1.49c-.22,6.19-3.57,6.5-7.06,9.63-3.28,3-9.52,2.87-10.17,9.22-.28,2.66-3.78,2.21-6.21,2.18-17.49-.25-35.11-3.51-52.37,2.12l-2.14,2.14.06.1-.06.06.06.1-.06.06.06.11h-.06l.06.11h-.06l.06.11-.06.06.06.1-.06.06.06.1-.06.06.06.1-.06.06.06.1-.06.06.06.1-.06.06.06.11-.06.05.06.11h-.06l.06.11-.06.06.06.1-.06.06.06.1-.06.06.06.1-.06.06.06.1-.06.06.06.1-.06.06.06.11h-.06l.06.11-.06.06.06.1-.06.06.06.1-.06.06.06.1-.06.06.06.1-.06.06.06.1-.06.06.06.11h-.06l.06.11-.06.05.06.11-.06.06.06.1-.06.06.06.1-.06.06.06.1-.06.06c.33.66.86,1.38,1.29,2.07-.1.46-.2.93-.27,1.39a26.234,26.234,0,0,0-.34,3.89v4.84c-.15,8.6,4.14,15.69,11,22.13a1.63,1.63,0,0,1,.39.68c-.93,6.68-4.36,16.76-6.77,17.64-2.18.81-4.47.19-6.46-1.92-2.28-2.43-4.84-7.47-8.29-5.18-6.65,4.4-14.32,1-22,4.93h0l.09-.05c-8.83-11.2-22.41-6.71-31.85-12.32-3.2-1.9-4.52-1.27-6.24-6.35-2.85-8.44-6.62-20.19-20.06-21.11-1.86,5.36-6.66,7.95-13.93,6.54l.1.18h-.1l.1.17h-.1l.1.17h-.1l.1.18h-.1l.1.18h-.1l.1.18h-.1l.1.18h-.1l.1.18h-.1l.1.17h-.1l.1.17h-.1l.1.17h-.1l.1.18h-.1l.1.18h-.1l.1.18h-.1l.1.18h-.1l.1.18h-.1l.1.17h-.1l.1.17h-.1l.1.18h-.1l.1.18h-.1l.1.18h-.1l.1.18h-.1l.1.18h-.1l.1.18h-.1l.1.17h-.1l.1.17h-.1l.1.18h-.1l.1.18h-.1l.1.18h-.1l.1.18h-.1l.1.18h-.1l.71,1.28c-5.22,1.54-9.23,3.61-9.2,10v5.72c-1.11,2.9-4.46,5.83-4.43,9.45v4.41c-4.32,1.16-7.61,2.43-10.1,7.07-3.76,7-7.05,15.24-15.71,18.35-4.23,1.52-2.29,5.93-4.21,8.61-5.83,8.15-13.7,11.91-23.57,11.71-5-.09-9.45.38-9.63,6.41v2.17c-10.59-.4-13.86,12.78-22.47,13.42-11.72.88-20.32,5.52-26.45,14.55-3,4.44-6.18-1.16-8.86,1.91-10,11.49-24.81,17.31-34.6,29.65-3.54,4.47-7,7.77-7.15,13.11a.85.85,0,0,1,0,.16,161078.887,161078.887,0,0,0,0,.48.86.86,0,0,1,0,.16.86.86,0,0,1,0,.16.85.85,0,0,1,0,.16,1,1,0,0,1,0,.17.85.85,0,0,1,0,.16,161058.4,161058.4,0,0,1,0,.64.85.85,0,0,1,0,.16,1,1,0,0,1,0,.17,35791.9,35791.9,0,0,0,0,.32,53710.035,53710.035,0,0,0,0,.32.86.86,0,0,1,0,.16v.1c-.69,1.61-3.43,2.19-3.21,4.24a.85.85,0,0,1,0,.16A.849.849,0,0,1,0,293a.85.85,0,0,1,0,.16.85.85,0,0,1,0,.16.85.85,0,0,1,0,.16.85.85,0,0,1,0,.16,1,1,0,0,1,0,.17A.85.85,0,0,1,0,294a.85.85,0,0,1,0,.16.85.85,0,0,1,0,.16.85.85,0,0,1,0,.16.85.85,0,0,1,0,.16.85.85,0,0,1,0,.16.85.85,0,0,1,0,.16,1,1,0,0,1,0,.17.85.85,0,0,1,0,.16.85.85,0,0,1,0,.16.85.85,0,0,1,0,.16.85.85,0,0,1,0,.16.85.85,0,0,1,0,.16.85.85,0,0,1,0,.16,1,1,0,0,1,0,.17.85.85,0,0,1,0,.16.85.85,0,0,1,0,.16.85.85,0,0,1,0,.16.85.85,0,0,1,0,.16.85.85,0,0,1,0,.1.85.85,0,0,1,0,.16.85.85,0,0,1,0,.16,1,1,0,0,1,0,.17,3.19,3.19,0,0,0,.4,1.33c4.35,9.39,16.72,11.42,20.62,22.2h0v4.38c0,2.62.77,5.16,5.87,4.54,8.66-1.07,3.38-8.5,7.77-13.85,10.55,12.11,25,17.53,40.5,22.67a10.3,10.3,0,0,0,1.89.22,22.24,22.24,0,0,0-1,6.74v4.84a12.26,12.26,0,0,0,2.77,7.62c-9.39,11.29-11,26.09-19.56,37.47a10.37,10.37,0,0,0-2.11,6.21v4.84a18.8,18.8,0,0,0,3.2,10.11,10.55,10.55,0,0,0-4.11,3.54c-3.86,5.73-7.23,3.61-12.38,4a.771.771,0,0,0,.07.16h-.07a.77.77,0,0,0,.07.16h-.07a.769.769,0,0,0,.07.16h-.07A1,1,0,0,0,44,425h-.07l.07.16h-.07l.07.16h-.07l.07.16h-.07a.771.771,0,0,0,.07.16h-.07a.77.77,0,0,0,.07.16h-.07a.77.77,0,0,0,.07.2h-.07a1,1,0,0,0,.07.15h-.07a1,1,0,0,0,.07.15h-.07l.07.16h-.07l.07.16h-.07l.07.16h-.07A.77.77,0,0,0,44,427h-.07a.77.77,0,0,0,.07.16h-.07a.77.77,0,0,0,.07.16h-.07a1,1,0,0,0,.07.15h-.07a1,1,0,0,0,.07.15h-.07l.07.16h-.07l.07.16h-.07l.07.16h-.07a.771.771,0,0,0,.07.16h-.07a.77.77,0,0,0,.07.16h-.07a.77.77,0,0,0,.07.16h-.07a1,1,0,0,0,.07.15h-.07l.07.16h-.07l.07.16h-.07l.07.16h-.07a.77.77,0,0,0,.07.16h-.07a14.331,14.331,0,0,1,1.07,2.8c-1,3.69-4.29,6.52-7.56,9-2,1.55-3.18,2.77-3.09,4.73v4.84a5,5,0,0,0,.1,1c.14.74.25,1.43.33,2.11-1.13,7.53-8.14,10.28-20.69,12.15l.23.13h-.23l.23.13h-.23l.23.13h-.23l.23.12h-.23l.23.12h-.23l.23.12h-.23l.23.12h-.23l.23.13h-.23l.23.13h-.23l.23.13h-.23l.23.12h-.23l.23.12h-.23l.23.12h-.23l.23.12h-.23l.23.12h-.23l.23.13h-.23l.23.13h-.23l.23.13h-.23l.23.12h-.23l.23.12h-.23l.23.12h-.23l.23.12h-.23a1.713,1.713,0,0,1,.23.13h-.23l.23.13h-.23l.23.13h-.23l.23.13h-.23l.23.12h-.23l.23.12h-.23l.23.12h-.23l.23.12h-.23l.23.13h-.23c6.4,3.42,4.51,3.82,12.19,5,1.78.28,5-3,8.45-2.67,4.32.46,4.59,5.12,12.44,4.45,1.36-.12,2.88-.22,4.45-.23h0v.47h0v.15h0v.15h0v.15h0v.15h0v.48h0c-.25,6.65-3.26,5-9,6.09l.11.14h-.11l.11.14h-.11l.11.14h-.11l.11.14h-.11a1.711,1.711,0,0,0,.11.14h-.11l.11.15h-.11l.11.15h-.11a1.713,1.713,0,0,1,.11.14h-.11l.11.14h-.11l.11.14h-.11l.11.14h-.11l.11.14h-.11a1.717,1.717,0,0,0,.11.14h-.11l.11.15h-.11l.11.15h-.11a1.7,1.7,0,0,1,.11.14h-.11l.11.14h-.11l.11.14h-.11l.11.14h-.11a1.717,1.717,0,0,0,.11.14h-.11a1.706,1.706,0,0,0,.11.14h-.11l.11.15h-.11a1.7,1.7,0,0,1,.11.14h-.11a1.708,1.708,0,0,1,.11.14h-.11l.11.14h-.11l.11.14h-.11l.11.14h-.11a1.713,1.713,0,0,0,.11.14h-.11l.11.15h-.11l.11.15h-.11a1.713,1.713,0,0,1,.11.14h-.11c4.63,6.28,9.34,10.62,17.55,5.43a2.63,2.63,0,0,1,3.32.09,6.07,6.07,0,0,0-.24,1.87,8054.865,8054.865,0,0,0,0,.64.851.851,0,0,0,0,.16,1,1,0,0,0,0,.17,16774.144,16774.144,0,0,1,0,.8.859.859,0,0,0,0,.16.85.85,0,0,0,0,.16,1,1,0,0,0,0,.17,6709.274,6709.274,0,0,1,0,.32,3355.6,3355.6,0,0,1,0,.32.86.86,0,0,0,0,.16.859.859,0,0,0,0,.16,1,1,0,0,0,0,.17.859.859,0,0,0,0,.16.86.86,0,0,0,0,.16.86.86,0,0,0,0,.16.859.859,0,0,0,0,.16.86.86,0,0,0,0,.16.86.86,0,0,0,0,.16.85.85,0,0,0,0,.16,1,1,0,0,0,0,.17.861.861,0,0,0,0,.16c.09,4.49,8.28-.81,13.13-9.34a12.19,12.19,0,0,1,3.42,3.32c-1.61,3.24-5.77,7.17-10.66,13.37h.13l-.13.17h.13l-.13.16h.13l-.13.16h.13l-.13.17h.13l-.13.17h.13l-.13.17h.13l-.13.17h.13l-.13.17h.13l-.13.17h.13l-.13.16h.13l-.13.16h.13l-.13.17h.13l-.13.17h.13l-.13.17h.13l-.13.17h.13l-.13.17h.13l-.13.17h.13l-.13.16h.13l-.13.17h.13l-.13.17h.13l-.13.17h.13l-.13.17h.13l-.13.17h.13l-.13.17h.13l-.13.17h.13l-.13.16h.13l-.13.17h.13l-.13.17h.13l-.13.17h.13l-.13.17h.13l-.13.17c5.45-.36,12.14,2,12.84-8.05l7.2,2.39c5.36-3.76.67-10.43,7.41-13.82,1.81-.91,2.57-2,2.54-3v-4.84c.05-1-.69-1.88-2-2.28a24,24,0,0,1-4.2-1.71c7.9,1.33,15.51,8.51,16.94,14.31,2.89,11.69,7,4.13,11.19,1.76,2.5,1.76,4.61,3.08,5.48,6.64,1.68,6.88,2.41,7,7.21,1,4.25-5.24,11.37.66,15.54-3.11h0v.16h0v.16h0v.16h0v.16h0v.16h0v.16h0v.16h0v.16h0v.16h0v.16h0V506h0v.16h0v.16h0v.16h0v.15h0v.15h0V507h0v.16h0v.16h0v.16h0v.16h0v.16h0v.2h0v.16h0c0,1.05.05,2.09.07,3.13a54.8,54.8,0,0,1-.59,7.22,3.6,3.6,0,0,0,0,.56v4.84c-.1,2.14,1.87,3.63,4.21,3.83,2.91.25,5.36-.89,6.55-2.92l8.22,7.2a5.58,5.58,0,0,1-2.31,2.68,2.159,2.159,0,0,1-.94-.48c-2.12-1.8-1.92-7.3-7.25-4.89,0,0-4.19,2.08-4.07,4.56a1677.158,1677.158,0,0,0,0,.32,1677.158,1677.158,0,0,1,0,.32.862.862,0,0,0,0,.16.849.849,0,0,0,0,.16.849.849,0,0,0,0,.16,1,1,0,0,0,0,.17.849.849,0,0,0,0,.16.849.849,0,0,0,0,.16.862.862,0,0,0,0,.16.862.862,0,0,0,0,.16.849.849,0,0,0,0,.16.849.849,0,0,0,0,.16,1,1,0,0,0,0,.17.849.849,0,0,0,0,.16,1677.158,1677.158,0,0,1,0,.32,559.053,559.053,0,0,1,0,.32,1677.158,1677.158,0,0,1,0,.32,1,1,0,0,0,0,.17,1677.158,1677.158,0,0,0,0,.32,558.982,558.982,0,0,1,0,.32.862.862,0,0,0,0,.16.849.849,0,0,0,0,.16.849.849,0,0,0,0,.16,2.21,2.21,0,0,0,.29,1.17c2.83,5.11,12-.19,12-.19a5.09,5.09,0,0,1,2.66,2.86,23.9,23.9,0,0,0-.49,3.9v4.84a5.67,5.67,0,0,0,.33,2.15,5.241,5.241,0,0,1,.22.58,46.213,46.213,0,0,0-.61,6.37v4.83c-.1,6.3,2.43,7.73,9.45,6a9.72,9.72,0,0,0-.68,3.64v4.83a10.249,10.249,0,0,0,.22,2.07c-2.14-.31-4.56-1.11-5.72-.11-5.33,4.59-6.52-2.79-10.79-6.34-1.79-.8-4.23,2.16-7.06,3.84-2.48,1.48-9.34-.89-9.34,1v.16h0v.16h0v.16h0v.16h0v.16h0v.16h0v.16h0v.16h0v.16h0v.16h0v.16h0V582h0v.16h0v.16h0v.16h0v.16h0v.15h0V583h0v.16h0v.16h0v.16h0v.16h0v.16h0v.2h0v.16h0v.16h0v.16h0v.16h0v.16h0v.16h0v.16h0c-.18,2.54,1.56,5.16,3.75,6.91a45,45,0,0,1-3,4.65c-3.48-2.66-4.44-8.88-12-7.11-1.81,3-2,8.41-9.54,11.89l.19.06-.19.1.19.06-.19.1.19.07-.19.09.19.07-.19.09.19.07-.19.09.19.07-.19.1.19.06-.19.1.19.06-.19.1.19.06-.19.1.19.06-.19.1.19.07-.19.09.19.07-.19.09.19.07-.19.09.19.07-.19.1.19.06-.19.1.19.06-.19.1.19.06-.19.1.19.06-.19.1.19.07-.19.09.19.07-.19.09.19.07-.19.09.19.07-.19.1.19.06-.19.1.19.06-.19.1.19.06-.19.1.19.07-.19.09.19.07-.19.09.19.07-.19.09.19.07-.19.1.19.06-.19.1.19.06-.19.1c13.29,4.38,18.68,10.4,19.24,23.58,0,.8-.07,1.61-.12,2.45v1a.852.852,0,0,1,0,.16,1,1,0,0,1,0,.17.852.852,0,0,1,0,.16.862.862,0,0,1,0,.16.862.862,0,0,1,0,.16.862.862,0,0,1,0,.16.862.862,0,0,1,0,.16.862.862,0,0,1,0,.16.85.85,0,0,1,0,.16,1,1,0,0,1,0,.17.861.861,0,0,1,0,.16.862.862,0,0,1,0,.16.861.861,0,0,1,0,.16.861.861,0,0,1,0,.16.861.861,0,0,1,0,.16.861.861,0,0,1,0,.16.85.85,0,0,1,0,.16,1,1,0,0,1,0,.17.862.862,0,0,1,0,.16.863.863,0,0,1,0,.16.861.861,0,0,1,0,.16.862.862,0,0,1,0,.16.862.862,0,0,1,0,.16.862.862,0,0,1,0,.16,1,1,0,0,1,0,.17.852.852,0,0,1,0,.16.862.862,0,0,1,0,.16.862.862,0,0,1,0,.16.862.862,0,0,1,0,.16.862.862,0,0,1,0,.16c.16,4.66,4.48,6.38,6.55,10.78a14.5,14.5,0,0,0,1.24-6.24V638c0-3.24-.94-6.3-1.36-9.59.27-1.49.88-3.56,2.1-3,1.85.89,1.48,6.52,3.59,9.31,2,2.19,2.92,5.67,3.17,9.79a93.649,93.649,0,0,1-3.11,18.35h0a.569.569,0,0,0,0,.14h0a.741.741,0,0,0,0,.14h0a.741.741,0,0,0,0,.14h0a1,1,0,0,0,0,.14h0a1,1,0,0,0,0,.14h0a.649.649,0,0,0,0,.13h0a.649.649,0,0,0,0,.13h0a.569.569,0,0,0,0,.14h0a.569.569,0,0,0,0,.14h0a.741.741,0,0,0,0,.14h0a.741.741,0,0,0,0,.14h0a1,1,0,0,0,0,.14h0a1,1,0,0,0,0,.14h0a.649.649,0,0,0,0,.13h0a.649.649,0,0,0,0,.13h0a.569.569,0,0,0,0,.14h0a.569.569,0,0,0,0,.14h0a.741.741,0,0,0,0,.14h0a.741.741,0,0,0,0,.14h0a1,1,0,0,0,0,.14h0a1,1,0,0,0,0,.14h0a.648.648,0,0,0,0,.13h0a.569.569,0,0,0,0,.14h0a.569.569,0,0,0,0,.14h0a.741.741,0,0,0,0,.14h0a.741.741,0,0,0,0,.14h0a1,1,0,0,0,0,.14h0a1,1,0,0,0,0,.14h0a.648.648,0,0,0,0,.13h0a.649.649,0,0,0,0,.13h0a.569.569,0,0,0,0,.14c3.88,2.73,7,2.77,9,4.51s1.11,3.82,2.43,6.42c-2.35.15-4.85.15-6.72.21a11.739,11.739,0,0,0-.36,2.89V686c0,5.92,6,7,11.17,7.35,1.21.09,1.67,1.34,2.31,3-3.38-.13-7.32-.1-8.83,1.29-3.26,3,1.19,6.73-11.18,12.21a.164.164,0,0,0,.05.14h-.05a.225.225,0,0,0,.05.14h-.05a.225.225,0,0,0,.05.14h-.05a.164.164,0,0,0,.05.14h-.05a.225.225,0,0,0,.05.14h-.05a.2.2,0,0,0,.05.13h-.05a.138.138,0,0,0,.05.13h-.05a.164.164,0,0,0,.05.14h-.05a.225.225,0,0,0,.05.14h-.05a.225.225,0,0,0,.05.14h-.05a.164.164,0,0,0,.05.14h-.05a.225.225,0,0,0,.05.14h-.05a.225.225,0,0,0,.05.14h-.05a.146.146,0,0,0,.05.13h-.05a.138.138,0,0,0,.05.13h-.05a.225.225,0,0,0,.05.14h-.05a.225.225,0,0,0,.05.14h-.05a.164.164,0,0,0,.05.14h-.05a.225.225,0,0,0,.05.14h-.05a.225.225,0,0,0,.05.14h-.05a.2.2,0,0,0,.05.13h-.05a.2.2,0,0,0,.05.13h-.05a.19.19,0,0,0,.05.13h-.05a.225.225,0,0,0,.05.14h-.05a.164.164,0,0,0,.05.14h-.05a.225.225,0,0,0,.05.14h-.05a.225.225,0,0,0,.05.14h-.05a.164.164,0,0,0,.05.14h-.05a.2.2,0,0,0,.05.13h-.05a.19.19,0,0,0,.05.13h-.05a.164.164,0,0,0,.05.14h-.05c.91,3.19,3.55,4.1,6.41,4.94-4.77,2-7.62,6.51-9.7,11h0c-.53,1.13-1,2.27-1.47,3.35-2.38,5.72-6,9.89-8.89,13.31a6.94,6.94,0,0,0-.11,1.06V754c-.19,4,4.11,4.54,4.55,7.92a.271.271,0,0,0,0,.09,837.939,837.939,0,0,0,0,.32,559.231,559.231,0,0,1,0,.32,1676.2,1676.2,0,0,1,0,.32,1,1,0,0,0,0,.17,558.982,558.982,0,0,0,0,.32c0,1.88,2.36,4.07,4.53,6.43-2.3,3.67-4,7.47-4,11.73v4.83a18.1,18.1,0,0,0,1.66,7.46,11.28,11.28,0,0,1-4.77,5.93c-2.26,1.33-5-4-6.1-2.27a10.64,10.64,0,0,0-1.39,5.73.859.859,0,0,0,0,.16.85.85,0,0,0,0,.16.848.848,0,0,0,0,.16,1,1,0,0,0,0,.17.848.848,0,0,0,0,.16.863.863,0,0,0,0,.16.862.862,0,0,0,0,.16.862.862,0,0,0,0,.16.862.862,0,0,0,0,.16.849.849,0,0,0,0,.16,1,1,0,0,0,0,.17.849.849,0,0,0,0,.16.849.849,0,0,0,0,.16.862.862,0,0,0,0,.16.862.862,0,0,0,0,.16.862.862,0,0,0,0,.16,1676.2,1676.2,0,0,1,0,.32,1,1,0,0,0,0,.17,558.8,558.8,0,0,0,0,.32,1678.118,1678.118,0,0,1,0,.32.861.861,0,0,0,0,.16,559.053,559.053,0,0,0,0,.32,1,1,0,0,0,0,.17.848.848,0,0,0,0,.16,1677.478,1677.478,0,0,1,0,.32c-.08,5.67,2.64,12.75,7.58,14.49,5.51,1.93,7.85,4.75,8.46,8.54a5.716,5.716,0,0,1-.08.71,7.294,7.294,0,0,0-.08,1.12v4.84c-.11,5,4.5,7.12,5.63,11,2.37-.41,4.29.6,5.15-1.26,1.65-3.56,0-8.91,2.3-11.61,1.5-1.76,2.44.55,7.2-1.42,0-4.86,4.19-18,5.23-18.34s1.39,1.15,1.52,3.06v.15a.849.849,0,0,0,0,.16.848.848,0,0,0,0,.16.85.85,0,0,0,0,.16,838.579,838.579,0,0,0,0,.32.849.849,0,0,0,0,.16.849.849,0,0,0,0,.16,1,1,0,0,0,0,.17.849.849,0,0,0,0,.16.849.849,0,0,0,0,.16,838.259,838.259,0,0,0,0,.32.85.85,0,0,0,0,.16.849.849,0,0,0,0,.16,1,1,0,0,0,0,.17,1676.2,1676.2,0,0,1,0,.32.85.85,0,0,0,0,.16.861.861,0,0,0,0,.16,25.878,25.878,0,0,0,.57,3.87,8,8,0,0,1-.46,1.35c-.79,1.74-4.41,3.8-4.4,6v5c.2,5.18,2.51,2.29,6.9.18,2.15-1,5.3,1.4,6.52,3.39,1-6.91,10.05-25,12-26.85,5.25-4.82,10.56-10.36,16.82-11-2.73,7-10.77,9.55-12,15.41h0v.15h0v.15h0v.15h0v.15h0v.16h0v.15h0v.15h0v.15h0v.15h0v.15h0v.15h0v.15h0v.15h0v.15h0v.15h0v.15h0v.15h0v.15h0v.15h0v.16h0V823h0v.15h0v.15h0v.15h0v.15h0v.15h0v.15h0v.16h0v.15h0v.15h0v.15c5.06,1.45,13.82-.56,14.48,7.54,10.43,2.24,8.69-10.91,16.5-12v-.16h0v-.15h0v-.15h0v-.15h0v-.15h0v-.15h0v-.15h0v-.16h0v-.16h0v-.15h0v-.15h0v-.15h0v-.15h0v-.15h0v-.16h0v-.16h0v-.16h0v-.15h0v-.15h0v-.15h0v-.15h0v-.15h0v-.16h0v-.16h0v-.15h0v-.15h0v-.15h0v-.15h0v-.15h0v-.15h0v-.16h0c-1.16-5-5.35-7.86-8.24-10.88.54-3.13-.18-6.14,2.35-8.89l7.44-1.2c2.52,1.22,3.72,2.78,4.2,4.51a36.078,36.078,0,0,0-.91,6.59v4.83a6.4,6.4,0,0,0,2.31,5.18c6.11-.64,2.77-9.72,9.49-8.66,3.25.51,4.32-1.08,4.29-3.81V797.5a2.445,2.445,0,0,1,0-.27v-1.56c0-1.94-.19-3.72-3.14-4.74-2.28-.8-4.13.24-5.75.06,6.67-1.13,7.12-5.32,10.25-5.89,1,4.51,6,1.35,13.19-2.85,2.48-1.44,4-5.39,8.37-4.2,1.55,9.92,14.24,11.46,16.13,22.3,2-5.77.31-14.95,10.25-7.65,1.26.93,5.29,1.24,5.19-2.34V786c.86-5,4.39-9.2,4.39-14.35,0-.39,1.3-.77,3.16-1.8l5.3,8.21c4.06-4,6.77-5.71,11.83-4.6a25.255,25.255,0,0,0,5.05.61,15.9,15.9,0,0,0,6.56-1.21c1.84-.72,2.67-3.42,4.35-4.72.37,2.58-.26,9.67,1.92,9.17,2.66-.61,3.87-6.53,6.39-9.17s6.41-3.48,9.84-3.44c2.29,0,3.52-1.53,4.33-3.74a129.467,129.467,0,0,1,5.29-12.78h0a53.83,53.83,0,0,1,12.74-17.3c.84-.73,1.15-2.42,1.16-3.94V722.1a9.594,9.594,0,0,0-.07-1.45c-.17-1.49-.29-3-.35-4.45.45-12.1,4.09-23.72,6.68-35.52a12.693,12.693,0,0,0,.64-3.09v-4.84c0-1.13-.45-2.15-2.35-2.42-5.55.54-3.64,9.16-9.88,8.59a9.581,9.581,0,0,1-1.51-1.63c1.09-1.6,2.87-3,3.57-4.44h-.06l.06-.12-.06-.05.06-.11h-.06l.06-.11h-.06l.06-.11-.06-.05.05-.3h-.06l.06-.12h-.06l.06-.12h-.06l.06-.12h-.06l.06-.11h-.06l.06-.11h-.06l.06-.11-.06-.05.06-.11h-.06l.06-.12h-.06l.06-.12h-.06l.06-.12h-.06l.06-.12h-.06l.06-.11-.06-.05L387,670l-.06-.05.06-.11h-.06l.06-.12h-.06l.06-.12h-.06l.06-.12h-.06l.06-.12h-.06L387,669l-.06-.05.06-.11-.06-.05.06-.11h-.06l.06-.11h-.06l.06-.12h-.06l.06-.12h-.06L387,668h-.06l.06-.12c-4.1-2.81-5.07-6.46-5.27-10.54.42-12.64,3.64-24.94,4.79-37.53q.28-3.1.33-6.2v-4.84a89.62,89.62,0,0,0-7.21-35.85c.42-.14.85-.28,1.28-.39v-.15h0v-.15h0v-.15h0v-.15h0v-.14h0v-.14h0v-.15h0v-.15h0v-.15h0v-.15h0v-.15h0v-.14h0v-.14h0v-.14h0v-.15h0v-.15h0v-.15h0v-.15h0v-.15h0v-.14h0v-.14h0v-.15h0v-.15h0V569h0v-.15h0v-.15h0v-.15h0v-.14h0v-.14h0v-.15h0v-.15h0c-4.6-16.19-15.71-27.75-22.65-41.59-9.29-18.53-23.07-33.83-35.1-50.41-2.57-3.54-1.72-9.38-3.55-13.7-6.1-14.39-12.68-28.59-19.15-42.83-.85-1.88-2.18-5.16-3.16-5.12-11.83.59-14.66-12.89-24.55-15.38a12.07,12.07,0,0,1-8.43-8.43c-2.54-10.68-10.48-13.28-18.6-15.28-2.09-.51-4.19-1-6.22-1.55-4.84-1.34-9.47-2.67-11.18-7,1.35-3.28,5.06-5.65,7-6.41,2.67-1,3.65-5.48,4.27-7.49a63.932,63.932,0,0,0,2.2-14.14V333.3a19.611,19.611,0,0,0-.46-5.17,46.506,46.506,0,0,1-1.1-5.12c.72-3.58,3.36-6,9-8.21,6.5-2.62,16.64-4.27,18.32-8.86,2.23-6.13,5.9-10.06,9.43-14.82l10.74,4.46,3.2-1.07c12.81-5.1,25.65-10.15,36.42-19.06l-.07-.1.07-.06-.07-.1.07-.06a.858.858,0,0,0-.07-.1l.07-.06-.07-.11.07-.05-.07-.11.07-.05-.07-.11.07-.05-.07-.11a.18.18,0,0,1,.07-.05l-.07-.11.07-.06-.07-.1.07-.06-.07-.1.07-.06a.86.86,0,0,0-.07-.1l.07-.06-.07-.11.07-.05-.07-.11.07-.05-.07-.11.07-.05-.07-.11.07-.06a.856.856,0,0,1-.07-.1l.07-.06-.07-.1.07-.06-.07-.1.07-.06a.858.858,0,0,0-.07-.1l.07-.06-.07-.11h.07l-.07-.11.07-.05-.07-.11a.18.18,0,0,1,.07,0l-.07-.11.07-.06-.07-.1.07-.06-.07-.1.07-.06-.07-.1.07-.06a.858.858,0,0,0-.07-.1l.07-.06-.07-.11.07-.05-.07-.11.07-.05-.07-.11a.18.18,0,0,1,.07-.05l-.07-.11.07-.06c-.7-1.19-1.94-2-2.89-3.07C338.3,269.27,343.34,253,356,250.54c.88-.17,1.81-1.94,2.1-3.11.24-.93.5-1.83.8-2.69h0c4.43-12.78,15.6-18.12,26.74-24.58,5.76-3.34,13.78.83,17.49-6.91a8.71,8.71,0,0,0,.9-3.8v-4.84c.1-3.89-2.36-7.35-3.09-11.05v-4a4.213,4.213,0,0,0,0-.62c-.08-.48-.12-1-.17-1.45.83-8.51,5.42-16.37,7-25.52h0v-.16h0v-.16h0v-.16h0v-.17h0v-.16h0V161h0v-.16h0v-.16h0v-.16h0v-.16h0v-.16h0v-.16h0v-.16h0v-.16h0v-.16h0v-.16h0v-.16h0v-.16h0v-.16h0v-.16h0v-.16h0v-.16h0v-.16h0v-.16h0v-.16h0v-.16h0v-.17h0v-.16h0v-.16h0v-.16h0v-.16c-7.37,0-10.71-3.23-11.52-7.68a25.349,25.349,0,0,1,.77-3.39c2.5-8.3,4.78-16.39,14.12-22.32,6.89-4.38,5.08-18.3,13.36-24.84,1-.79,2.07-1.93,3.21-2.07,9.62-1.22,8.83-16.44,20.29-15.06,1.68-11.06,7.44-10.17,15.08-5.53a5.33,5.33,0,0,0,6.54-1.1.563.563,0,0,0,0-.12h0a.561.561,0,0,0,0-.12h0a.561.561,0,0,0,0-.12h0a.561.561,0,0,0,0-.12h0a.561.561,0,0,0,0-.12h0a.647.647,0,0,0,0-.13h0a.5.5,0,0,0,0-.13.561.561,0,0,0,0-.12h0a.561.561,0,0,0,0-.12h0a.561.561,0,0,0,0-.12h0a.561.561,0,0,0,0-.12h0a.561.561,0,0,0,0-.12h0a.561.561,0,0,0,0-.12h0a.647.647,0,0,0,0-.13.561.561,0,0,0,0-.12h0a.561.561,0,0,0,0-.12h0a.561.561,0,0,0,0-.12h0a.561.561,0,0,0,0-.12h0a.561.561,0,0,0,0-.12h0a.561.561,0,0,0,0-.12h0a.929.929,0,0,0,0-.13h0a.5.5,0,0,0,0-.13h0a.561.561,0,0,0,0-.12h0a.561.561,0,0,0,0-.12h0a.561.561,0,0,0,0-.12h0a.561.561,0,0,0,0-.12h0a.561.561,0,0,0,0-.12h0a.561.561,0,0,0,0-.12h0a.929.929,0,0,0,0-.13h0a.5.5,0,0,0,0-.13.666.666,0,1,0-.07-1.33Z" transform="translate(385 210)" fill="#ccc"/>
      </g>
      <g transform="matrix(1, 0, 0, 1, -385, -210)" filter="url(#Path_40)">
        <path id="Path_40-2" data-name="Path 40" d="M499.08,526c.09-5.39-10.05-2.39-12.69,2.22a1.159,1.159,0,0,0-.12.55.849.849,0,0,0,0,.16,1,1,0,0,0,0,.17.849.849,0,0,0,0,.16,838.579,838.579,0,0,1,0,.32.859.859,0,0,0,0,.16.86.86,0,0,0,0,.16.859.859,0,0,0,0,.16.844.844,0,0,0,0,.16,1,1,0,0,0,0,.17.844.844,0,0,0,0,.16.844.844,0,0,0,0,.16.859.859,0,0,0,0,.16.859.859,0,0,0,0,.16.859.859,0,0,0,0,.16.859.859,0,0,0,0,.16.844.844,0,0,0,0,.16,1,1,0,0,0,0,.17.844.844,0,0,0,0,.16.859.859,0,0,0,0,.16.859.859,0,0,0,0,.16.859.859,0,0,0,0,.16.859.859,0,0,0,0,.16.859.859,0,0,0,0,.16,1,1,0,0,0,0,.17,279.562,279.562,0,0,0,0,.32,2516.218,2516.218,0,0,0,0,.48c-.29,2.22,6,6.11,7.68,7s4.44-3.11,5.11-9.11a4.283,4.283,0,0,0,0-.61.491.491,0,0,0,0-.17,2516.058,2516.058,0,0,1,0-.48,419.13,419.13,0,0,0,0-.32,838.259,838.259,0,0,1,0-.32.491.491,0,0,0,0-.17,419.29,419.29,0,0,1,0-.32,419.45,419.45,0,0,1,0-.32,2515.738,2515.738,0,0,1,0-.48.49.49,0,0,0,0-.17,139.763,139.763,0,0,1,0-.32,167.716,167.716,0,0,1,0-.32,838.739,838.739,0,0,1,0-.32.49.49,0,0,0,0-.17,167.716,167.716,0,0,1,0-.32,2516.058,2516.058,0,0,1,0-.48.431.431,0,0,0,.02-.21Z" transform="translate(385 210)" fill="#ccc"/>
      </g>
      <g transform="matrix(1, 0, 0, 1, -385, -210)" filter="url(#Path_41)">
        <path id="Path_41-2" data-name="Path 41" d="M582.24,539.4a6.269,6.269,0,0,0-.18-1.48c-.78-3.22-5.78.89-8.76,3.08-.47.34-.62.65-.55.93a.33.33,0,0,0,0,.17,8804.042,8804.042,0,0,0,0,1.12.33.33,0,0,0,0,.17,6288.464,6288.464,0,0,0,0,.96.33.33,0,0,0,0,.17,8804.042,8804.042,0,0,0,0,1.12.33.33,0,0,0,0,.17,6288.464,6288.464,0,0,0,0,.96c-.09,1.29,4.31,2,6.09,1.93a4.19,4.19,0,0,0,3.4-4.46V539.4Z" transform="translate(385 210)" fill="#ccc"/>
      </g>
    </g>
    <g id="map_piece">
      <g id="hamgyeong_n" transform="translate(667.28 209)">
        <path id="Path_hk_n" data-name="Path 8" d="M358.94,239.74c-8.07-6.21-8.21-17.08-12.46-25.13-2.58-4.89-1.52-10.07,0-14.94,4-12.64,2.84-15.89-9.77-20.07-2.45-.81-4.5-1.91-5.1-3.54-4.6-12.46-12.21-24-9.91-38.48,1.51-9.49-7.11-15.07-13-17.45-7.61-3.09-18.19-7.73-25.42-11.51h0a31.552,31.552,0,0,1,1-4.22c.34-1.11-1.28-2.81-2-4.24L284.45,98c17.26-5.63,34.88-2.37,52.37-2.12,2.43,0,5.93.48,6.21-2.18.65-6.35,6.89-6.27,10.17-9.22,3.75-3.37,7.35-3.46,7.06-11.12-.23-6.1,8.43-12.54,13.93-19.88,8.23,12.35,16.43,2.49,25.08,1.71,2.81-17.87,1.6-36.66,11.7-54.13,10.28-4.59,16.93,6.76,27.49,9.69-6.2,14.41,3.17,23.06,12.26,32.25l4.37-7.92c1,15,11.39,23.17,14.5,34.89a5.34,5.34,0,0,1-6.54,1.1c-7.64-4.64-13.4-5.53-15.08,5.53-11.45-1.38-10.67,13.84-20.29,15.06-1.14.14-2.2,1.28-3.21,2.07-8.28,6.54-6.47,20.46-13.36,24.84-9.34,5.93-11.61,14-14.12,22.32C394.54,149,396.17,157,407.74,157c-1.94,11.41-8.61,20.81-6.8,32a3,3,0,0,1,0,1.07c-1.25,6.3,5.49,11.45,2.24,18.23-3.72,7.74-11.74,3.57-17.5,6.91-11.14,6.46-22.31,11.8-26.74,24.58Z" transform="translate(-282.28 0.02)" fill="#e4fff3"/>
        <text id="text_hamgyeong_n" data-name="text_hamgyeong_n" transform="translate(93.72 116)" fill="#333" font-size="14" font-family="MalgunGothic, Malgun Gothic"><tspan x="-28" y="0">함경북도</tspan><tspan y="0" font-family="SpoqaHanSansJP-Regular, SpoqaHanSansJP"></tspan><tspan font-family="SpoqaHanSansJP-Regular, SpoqaHanSansJP"><tspan x="-29.239" y="20">11,673</tspan><tspan y="20" font-family="MalgunGothic, Malgun Gothic">명</tspan></tspan></text>
      </g>
      <g id="pyeongAn_n" transform="translate(385.012 324.86)">
        <path id="Path_pa_n" data-name="Path 13" d="M250.93,155.57a18.24,18.24,0,0,0-3.64,2.46c-9.73,8.35-19.71,15.91-26.49,26.51-3.32.84-4.13-2.89-5.82-2.9-9.72,0-24.56,21.76-20,30.72,5.51,10.93,5.42,22.57,3.56,33.21a47.19,47.19,0,0,1-4.7,14c-8.51,16.14-25.57,24.19-42.75,32.09,1.41,7.6-1.31,11.26-10.89,12.82-5.66.93-13.18-.56-16.74,2.58-9.1,8-19.74,12.55-30,18.34-6.4,3.62-15.37,1.39-18.28,8.44h0c-15.51-5.14-29.95-10.56-40.5-22.67-4.39,5.35.89,12.78-7.77,13.84-8.44,1-5-6.59-5.87-8.92-3.9-10.78-16.27-12.81-20.62-22.2-1.88-3.56,3.37-3.61,3-6.48-1-6.74,3-10.29,7-15.36,9.78-12.34,24.55-18.16,34.59-29.65,2.68-3.07,5.85,2.53,8.86-1.91,6.13-9,14.73-13.67,26.45-14.55,8.61-.64,11.88-13.83,22.48-13.42v-1.07c-.35-7.09,4.33-7.61,9.62-7.51,9.87.2,17.74-3.56,23.57-11.71,1.92-2.68,0-7.09,4.21-8.61,8.66-3.11,12-11.36,15.71-18.35,2.77-5.16,6.52-6.15,11.59-7.46-4.94-6.75,4.08-11.09,3.23-15.81-1.82-10.24,4.06-12.09,11.26-14l-3.1-5.62c7.27,1.41,12.07-1.18,13.93-6.54,13.44.92,17.21,12.67,20.06,21.11,1.72,5.08,3,4.45,6.24,6.35,9.44,5.61,23,1.12,31.85,12.32Z" transform="translate(-0.012 -115.84)" fill="#c9f3ff"/>
        <text id="text_pyungAn_n" data-name="text_pyungAn_n" transform="translate(104.988 140.14)" fill="#333" font-size="14" font-family="MalgunGothic, Malgun Gothic"><tspan x="-28" y="0">평안북도</tspan><tspan y="0" font-family="SpoqaHanSansJP-Regular, SpoqaHanSansJP"></tspan><tspan font-family="SpoqaHanSansJP-Regular, SpoqaHanSansJP"><tspan x="-29.239" y="20">11,248</tspan><tspan y="20" font-family="MalgunGothic, Malgun Gothic">명</tspan></tspan></text>
      </g>
      <g id="hamgyeong_s" transform="translate(555.18 317.64)">
        <path id="Path_12" data-name="Path 12" d="M283.33,108.62c-1.65,10.33,2.84,18.51,10.66,25.86,2.5,2.35-3,22.06-6.38,23.32-2.17.81-4.47.19-6.46-1.92-2.28-2.43-4.83-7.47-8.28-5.18-7.68,5.08-16.72-.28-25.58,7.33-9.73,8.35-19.71,15.91-26.49,26.51-3.32.84-4.13-2.89-5.82-2.9-9.72,0-24.56,21.76-20,30.72,5.51,10.93,5.42,22.57,3.56,33.21a47.19,47.19,0,0,1-4.7,14h0c18.55-7.14,10.81,12.8,18.88,16.43,1.85.83-.39,5.53-3.07,7.07-7.39,4.23-5.58,10.27-3,16,.88,2,.47,3.66.93,5.38-4.31,5.11-9.68,1.84-13.86.81-7.66-1.89-12.12.77-11.54,7.78.93,11.11-4.67,10.48-12,8.58a13,13,0,0,1,5,2.74c1.69,1.76,5.74,19.92,1.06,31.35,11.27,1.67,19.9,7.82,28.2,16.23-4.66,2.67-7.39,5.92-7.56,11.59h0c2.09,2,3.58,4.09,3.36,7.63a26.88,26.88,0,0,1-2.24,9.39h0c2.84.74,6.75,1.71,9.8,2.5,3.43-4.13,2.11-8.55.77-13.39,2.86-2.66,7.06-3.88,10.42-7.7,2.82,12.24,2.29,24.83,8.67,37.53,4.85-10.13,6.85-23,24-19-3.91-9-9-15.38-6.62-23.27l.81-2.48h0c-2.1-.51-4.2-1-6.23-1.55-5.12-1.41-10-2.81-11.45-7.81-1.58-5.41,4.58-9.57,7.25-10.63s3.66-5.48,4.28-7.49,3.26-13.32,1.73-19.15c-2.69-10.24-1.79-14.44,7.87-18.33,6.5-2.62,16.65-4.27,18.32-8.86,2.23-6.13,5.9-10.06,9.43-14.82l10.74,4.46,3.21-1.07c12.8-5.1,25.64-10.15,36.41-19.06-1.41-2.39-5-3.1-4.06-8.27C338,265.19,343,248,356,245.53c.88-.16,1.81-1.93,2.1-3.1.24-.93.51-1.83.8-2.69h0c-8.07-6.21-8.21-17.08-12.46-25.13-2.58-4.89-1.52-10.07,0-14.94,4-12.64,2.84-15.89-9.77-20.07-2.45-.81-4.5-1.91-5.1-3.54-4.6-12.46-12.21-24-9.91-38.48,1.51-9.49-7.11-15.07-13-17.45-7.61-3.09-18.19-7.73-25.42-11.51Z" transform="translate(-170.18 -108.62)" fill="#d3f9ff"/>
        <text id="text_hamgyeong_s" data-name="text_hamgyeong_s" transform="translate(109.82 105.36)" fill="#333" font-size="14" font-family="MalgunGothic, Malgun Gothic"><tspan x="-28" y="0">함경남도</tspan><tspan y="0" font-family="SpoqaHanSansJP-Regular, SpoqaHanSansJP"></tspan><tspan font-family="SpoqaHanSansJP-Regular, SpoqaHanSansJP"><tspan x="-29.239" y="20">12,502</tspan><tspan y="20" font-family="MalgunGothic, Malgun Gothic">명</tspan></tspan></text>
      </g>
      <g id="pyeongAn_s" transform="translate(442.104 467.008)">
        <path id="Path_14" data-name="Path 14" d="M193.8,259.54c-8.51,16.14-25.57,24.19-42.75,32.09,1.41,7.6-1.31,11.26-10.89,12.82-5.66.93-13.18-.56-16.74,2.58-9.1,8-19.74,12.55-30,18.34-6.4,3.62-15.37,1.39-18.28,8.44h0c1.36.42,3.79-.26,3,1.71-2.27,6.48-4.3,14.15,3.08,20.08-11.58,11.53-12.66,27.82-22,40.1-4.51,6-1.15,14,3.91,20.05h0c5.37-1.56,12-1.3,17.19-4.12,4.7-2.57,5.82,5.79,10.44,5.24,7.51-3.63,0-7.2-.1-11.3,7.18-2.13,14.66-7.92,21.37-1.35,5.2,5.1,12.05,6.24,17.27,11.36,2.39-4.78,7-6,10.43-9.11l-9.46-14.25c9.81-9.23,18.62,2.88,27.29,1,6.25-6,1.6-15.66,7.83-21.09,11.37.3,21.68,2.94,30.26,10.42.35.31.69.61,1,.93h0c.17-5.67,2.9-8.92,7.56-11.59-8.3-8.41-16.93-14.56-28.2-16.23,4.68-11.43.63-29.59-1.06-31.35a13,13,0,0,0-5-2.74c7.37,1.9,13,2.53,12-8.58-.58-7,3.88-9.67,11.54-7.78,4.18,1,9.55,4.3,13.86-.81-.46-1.72,0-3.42-.93-5.38-2.58-5.75-4.39-11.79,3-16,2.68-1.54,4.92-6.24,3.07-7.07-8.07-3.63-.33-23.57-18.88-16.43Z" transform="translate(-57.104 -257.988)" fill="#bdecff"/>
        <text id="text_pyeongAn_s" data-name="text_pyeongAn_s" transform="translate(67.896 87.992)" fill="#333" font-size="14" font-family="MalgunGothic, Malgun Gothic"><tspan x="-28" y="0">평안남도</tspan><tspan y="0" font-family="SpoqaHanSansJP-Regular, SpoqaHanSansJP"></tspan><tspan font-family="SpoqaHanSansJP-Regular, SpoqaHanSansJP"><tspan x="-29.239" y="20">14,280</tspan><tspan y="20" font-family="MalgunGothic, Malgun Gothic">명</tspan></tspan></text>
      </g>
      <g id="hwanghae" transform="translate(399.04 581.16)">
        <path id="Path_16" data-name="Path 16" d="M149.22,499.23c-4.16,3.77-11.29-2.13-15.54,3.11-4.8,5.92-5.53,5.83-7.21-1-.87-3.56-3-4.88-5.48-6.64-4.18,2.37-8.3,9.93-11.19-1.76-1.69-6.84-12-15.61-21.18-14.42-.88,2.38,3.55,5.34,8.44,6.82,2.6.79,3,3.41-.53,5.17-6.74,3.39-2,10.06-7.41,13.81l-7.2-2.38c-.7,10-7.39,7.69-12.84,8.05,9.37-11.86,16.07-15.44,7.24-21.69-5.48,9.63-15.22,15.17-12.74,7.09,1.63-5.31-1.6-5.74-3.47-4.55-8.21,5.19-12.92.85-17.55-5.43,6.31-1.24,9.32.92,9-8.22-.08-2.31,9.5-2.55,9.5-2.55-4-2.34-9.78-2.1-13.95-1.74-7.85.67-8.12-4-12.44-4.45-3.49-.37-6.67,3-8.44,2.67-7.69-1.22-5.8-1.62-12.19-5C30,463.66,37,459.91,34.41,446.77c-.49-2.47.71-3.8,3-5.56,5.25-4,10.45-8.88,6.51-16.82,5.15-.38,8.53,1.74,12.38-4a11.84,11.84,0,0,1,6.94-4.63c5.37-1.56,12-1.3,17.19-4.12,4.7-2.57,5.82,5.79,10.44,5.24,7.51-3.63,0-7.2-.1-11.3,7.18-2.13,14.66-7.92,21.37-1.35,5.2,5.1,12.05,6.24,17.27,11.36,2.39-4.78,7-6,10.43-9.11l-9.46-14.25c9.81-9.23,18.62,2.88,27.29,1,6.25-6,1.6-15.66,7.83-21.09,11.37.3,21.68,2.94,30.26,10.42.35.31.69.61,1,.93,2.09,2,3.58,4.09,3.36,7.63a26.88,26.88,0,0,1-2.24,9.39c-4.71,10.54-15.71,15.7-24.12,23.07-1.68,2.68,1.92,4.26,1.71,7.12-.71,9.85,3.68,16.65,11.5,22.74a16.07,16.07,0,0,0,4.75,2.52h0c-4.06,4.39-8.26,9.08-15.29,7.08s-12.37,2.15-16,8.32c-3.13,5.36-3.16,5.35-8.54,2.14-3.18,7.26-3,16.54-2.71,25.69Z" transform="translate(-14.04 -372.14)" fill="#afe3ff"/>
        <text id="text_hwanghae" data-name="text_hwanghae" transform="translate(87.96 69.84)" fill="#333" font-size="14" font-family="MalgunGothic, Malgun Gothic"><tspan x="-21" y="0">황해도</tspan><tspan y="0" font-family="SpoqaHanSansJP-Regular, SpoqaHanSansJP"></tspan><tspan font-family="SpoqaHanSansJP-Regular, SpoqaHanSansJP"><tspan x="-29.239" y="20">10,238</tspan><tspan y="20" font-family="MalgunGothic, Malgun Gothic">명</tspan></tspan></text>
      </g>
      <g id="gangwon" transform="translate(558.342 583.75)">
        <path id="Path_18" data-name="Path 18" d="M377.73,568.58a24.81,24.81,0,0,0-11.15,9.74c-4.18-5.09-8.94-5.1-14.83-4.68s-11.86,1.77-18.19.84a19.07,19.07,0,0,0-12,2.37h0c-1.42-1.07-4.51-4.2-6.11-4.85-6.12-2.5-15.66,1.73-17.43-9.64-.29-1.83-5.34-2.91-8.28-4.38-6,7.17-12,7.75-17.63-.82-5.05,9.7-10.9,11-18.74,6.84h0a22.51,22.51,0,0,0,2.56-11.33c-.24-8.61.87-17.61,5.09-25.59-2.64-4.39-7.27-2.08-10.81-3-12.6-3.33-16.84-14.46-8.41-24.82,4-4.91,6-8.25-2.12-11-3-1-6.9-4.55-7.2-7.29-.74-6.75-5.08-7.62-10-8.51-8.07-1.45-11.14-9.71-18.05-13.09-4-2-8.47-1.95-12.68-3.38a16.07,16.07,0,0,1-4.75-2.52c-7.82-6.09-12.21-12.89-11.5-22.74.21-2.86-3.39-4.44-1.71-7.12,8.41-7.37,19.41-12.53,24.12-23.07h0c2.84.74,6.75,1.71,9.8,2.5,3.43-4.13,2.11-8.55.77-13.39,2.86-2.66,7.06-3.88,10.42-7.7,2.82,12.24,2.29,24.83,8.67,37.53,4.85-10.13,6.85-23,24-19-3.91-9-9-15.38-6.62-23.27l.81-2.48h0c8.11,2,16,4.6,18.59,15.28a12.07,12.07,0,0,0,8.43,8.43c9.89,2.49,12.72,16,24.55,15.38,1,0,2.31,3.24,3.17,5.12,6.46,14.24,13,28.44,19.15,42.83,1.82,4.32,1,10.16,3.54,13.7,12,16.58,25.81,31.88,35.11,50.41,6.94,13.84,18,25.4,22.64,41.59a24.128,24.128,0,0,0-3.21,1.11Z" transform="translate(-173.342 -374.73)" fill="#b5e7ff"/>
        <text id="text_gangwon" data-name="text_gangwon" transform="translate(107.658 85.25)" fill="#333" font-size="14" font-family="MalgunGothic, Malgun Gothic"><tspan x="-21" y="0">강원도</tspan><tspan y="0" font-family="SpoqaHanSansJP-Regular, SpoqaHanSansJP"></tspan><tspan font-family="SpoqaHanSansJP-Regular, SpoqaHanSansJP"><tspan x="-25.067" y="20">8,557</tspan><tspan y="20" font-family="MalgunGothic, Malgun Gothic">명</tspan></tspan></text>
      </g>
      <g id="gyeonggi" transform="translate(533.785 665.02)">
        <g>
          <path id="Path_19" data-name="Path_19" d="M-59.739-466.269c-3.48-4.93-4.15-10.831,3.16-17-13.35,4.39-15.9,2.61-13.81-10.94a12.434,12.434,0,0,0,.239-3.82c6.53-3.36,9.941-10.6,10.41-20.69,3.43,3.49,5.63,8.4,9.85,10.49,12.12.529,21.451-2.85,21.69-16,.121-6.68-7.279-7.71-13.37-10.49.58,13.091-14.58,4.9-18.17,16a11.382,11.382,0,0,0-6.21-3.45,5.929,5.929,0,0,0-3.15,2.65l-9.934-8.7a6.667,6.667,0,0,1-6.536,2.9c-2.49-.23-4.549-1.88-4.17-4.23a85.064,85.064,0,0,0,.52-15.358l-.031,0v0l-.1.008.1-.011c-.04-1.283-.129-2.586-.129-3.879-.291-9.15-.471-18.43,2.71-25.69,5.38,3.21,5.41,3.22,8.54-2.139,3.63-6.17,8.969-10.32,16-8.32s11.23-2.69,15.29-7.079c4.21,1.429,8.681,1.38,12.68,3.38,6.91,3.38,9.98,11.64,18.05,13.09,4.919.889,9.26,1.76,10,8.51.3,2.74,4.2,6.29,7.2,7.29,8.12,2.75,6.12,6.09,2.119,11-8.429,10.36-4.189,21.49,8.411,24.82a13.179,13.179,0,0,0,3.694.214c2.648-.088,5.335-.176,7.116,2.785-4.23,7.98-5.34,16.98-5.13,25.591a22.508,22.508,0,0,1-2.56,11.33c-10.211,5.649-9.35,12.59-15.12,13.15-9.05.869-15.17,8.05-21.82,13.119-4.32-2.229-10.01-5.77-10.54-5.1-4.95,6.29-12.43,1.39-17.18,5.39C-53.369-459.73-57.259-462.759-59.739-466.269Zm-29.64-78.62.129-.014v.014Z" transform="translate(89.784 592.019)" fill="#a5dcff"/>
        </g>
        <text id="text_gyeonggi" data-name="text_gyeonggi" transform="translate(38.215 29.98)" fill="#333" font-size="14" font-family="MalgunGothic, Malgun Gothic"><tspan x="-21" y="0">경기도</tspan><tspan y="0" font-family="SpoqaHanSansJP-Regular, SpoqaHanSansJP"></tspan><tspan font-family="SpoqaHanSansJP-Regular, SpoqaHanSansJP"><tspan x="-29.239" y="16">22,065</tspan><tspan y="16" font-family="MalgunGothic, Malgun Gothic">명</tspan></tspan></text>
      </g>
      <g id="incheon" transform="translate(495 734.859)">
        <path id="Union_2" data-name="Union 2" d="M458.771,95.57c-1.579-4.146,3.4-10.669-2.485-13.742-.4.228-9.221,5.175-11.986.182-1.61-2.9,3.78-5.56,3.78-5.56,5.33-2.409,5.13,3.091,7.249,4.891a2.169,2.169,0,0,0,.941.48c2.17-1.13,2.65-3.94,4-6.17A6,6,0,0,1,463.43,73a11.4,11.4,0,0,1,6.241,3.45c-.47,10.091-3.88,17.33-10.41,20.69A5.89,5.89,0,0,0,458.771,95.57Z" transform="translate(-400.81 -73)" fill="#8ac8e6"/>
        <text id="text_incheon" data-name="text_incheon" transform="translate(14 16.14)" fill="#333" font-size="14" font-family="MalgunGothic, Malgun Gothic"><tspan x="-14" y="0">인천</tspan></text>
      </g>
      <g id="seoul" transform="translate(563.86 722.31)">
        <path id="Path_22" data-name="Path 22" d="M178.86,529.29c3.59-11.1,18.75-2.91,18.17-16,6.09,2.78,13.49,3.81,13.37,10.49-.24,13.15-9.57,16.53-21.69,16-4.22-2.09-6.42-7-9.85-10.49" transform="translate(-178.86 -513.29)" fill="#dae9f2"/>
        <text id="text_seoul" data-name="text_seoul" transform="translate(16.14 29.69)" fill="#333" font-size="14" font-family="MalgunGothic, Malgun Gothic"><tspan x="-14" y="0">서울</tspan></text>
      </g>
      <g id="chungcheong_n" transform="translate(601.4 766.15)">
        <path id="Path_23" data-name="Path 23" d="M242.67,672.2c4.89,1.54,12.94,3.82,18.27,3.56a14.75,14.75,0,0,0,1.9-.17c6.1-.86,10.61-4.42,9.35-10.47-1.1-5.3,3.1-6.37,3.9-10-4.14-3.31-10.28-1.18-14.23-5.26,1.44-9.88,8.12-20.71-5.53-29.66,9.5-.82,10-14,20.64-11.91.76-10.36,12.69-14.34,26.51-8.18,3.38-5.87,5.16-12.66,10.63-17.79a35.672,35.672,0,0,1,7.42-5.5h0c-1.42-1.07-4.51-4.2-6.11-4.85-6.12-2.5-15.66,1.73-17.43-9.64-.29-1.83-5.34-2.91-8.28-4.38-6,7.17-12,7.75-17.63-.82-5.05,9.7-10.9,11-18.74,6.84h0c-10.21,5.65-9.35,12.59-15.12,13.15-9.05.87-15.17,8.05-21.82,13.12h0c.64.33,1.25.63,1.81.88,4,1.82,2.47,8.48,8.5,9,1.61.12,2.51,4.42-1,6.08-3.86,1.81-6.25,5.15-9.05,8.47,2.6,5.44,6.9,9.92,6.88,15.85,4.83,3.23,15.79-2.42,13.84,9.89-.71,4.51-1.35,9.85-3.67,13.58l.54.34c11,1.93,5.51,10.49,8.45,17.88" transform="translate(-216.4 -557.13)" fill="#a1c3ff"/>
        <text id="text_chungcheong_n" data-name="text_chungcheong_n" transform="translate(38.6 21.85)" fill="#333" font-size="14" font-family="MalgunGothic, Malgun Gothic"><tspan x="-28" y="0">충청북도</tspan><tspan y="0" font-family="SpoqaHanSansJP-Regular, SpoqaHanSansJP"></tspan><tspan font-family="SpoqaHanSansJP-Regular, SpoqaHanSansJP"><tspan x="-25.067" y="20">7,174</tspan><tspan y="20" font-family="MalgunGothic, Malgun Gothic">명</tspan></tspan></text>
      </g>
      <g id="chungcheong_s" transform="translate(507.77 784.135)">
        <path id="Path_21" data-name="Path 21" d="M242.67,672.2c1.11,3.58.8,5.95-3.08,5.44-3.52-.46-5.83,1.22-8.81,2.48-5.61-3-8.14-8.44-10-15.47-11.5,11.41-21.38,4.09-31.72-2.2-4.53,9-11.17,13.69-19,15.73h0c-7.46-4.59-4-8.31-7-10.82-2-1.74-5.13-1.78-9-4.51,3.17-12,5.24-27.26-.06-33.14-2.11-2.79-1.74-8.42-3.59-9.31s-2.3,4.37-2.3,4.37c-.23,6.83,3.39,12.3.32,19.28-2.19-4.64-6.88-6.3-6.54-11.58,1.18-18.51-3.54-25.9-19.12-31,7.59-3.48,7.73-8.9,9.54-11.89,7.59-1.77,8.55,4.45,12,7.11,2.6-2.95,3.26-7.95,8.6-7.6h0c-3.58.63-9.69-4.31-9.35-9,0-1.85,6.86.52,9.35-1,2.82-1.68,5.26-4.64,7.05-3.84,4.27,3.55,5.46,10.93,10.79,6.34,1.61-1.39,5.7.72,8,.11h0c2.48,3.52,6.37,6.54,9.82,8.82,4.75-4,12.23.9,17.19-5.39.52-.67,6.21,2.87,10.53,5.1.64.33,1.25.63,1.81.88,4,1.82,2.47,8.48,8.5,9,1.61.12,2.51,4.42-1,6.08-3.86,1.81-6.25,5.15-9.05,8.47,2.6,5.44,6.9,9.92,6.88,15.85-3.77,5.2-7.53,11.74-10.9,16.38,2.26,9.57,9.08,13.59,16.09,11.2a9.28,9.28,0,0,0,5-4.11l.54.34c11,1.93,5.51,10.49,8.45,17.88" transform="translate(-122.77 -575.115)" fill="#a2d3ff"/>
        <text id="text_chungcheong_s" data-name="text_chungcheong_s" transform="translate(45.23 35.865)" fill="#333" font-size="14" font-family="MalgunGothic, Malgun Gothic"><tspan x="-28" y="0">충청남도</tspan><tspan y="0" font-family="SpoqaHanSansJP-Regular, SpoqaHanSansJP"></tspan><tspan font-family="SpoqaHanSansJP-Regular, SpoqaHanSansJP"><tspan x="-25.067" y="16">9,677</tspan><tspan y="16" font-family="MalgunGothic, Malgun Gothic">명</tspan></tspan></text>
      </g>
      <g id="daejeon" transform="translate(596 823)">
        <path id="Path_25" data-name="Path 25" d="M233.68,654a9.28,9.28,0,0,1-5,4.11c-7,2.39-13.83-1.63-16.09-11.2,3.37-4.64,7.13-11.18,10.9-16.38,4.83,3.23,15.79-2.42,13.84,9.89C236.64,644.91,236,650.25,233.68,654Z" transform="translate(-211 -613.98)" fill="#5a96cc" opacity="0.9"/>
        <text id="text_daejeon" data-name="text_daejeon" transform="translate(14 15)" fill="#333" font-size="14" font-family="MalgunGothic, Malgun Gothic"><tspan x="-14" y="0">대전</tspan></text>
      </g>
      <g id="gyeongsang_n" transform="translate(641.36 777.6)">
        <path id="Path_26" data-name="Path 26" d="M265.22,687.48c2.26,6.35,9.16,7.56,15.62,8.85,5.78,1.14,6.57,7.93,6.7,14.89.06,3,6.16,2.36,7.53,1.77,2.73-1.17,4.22,1.62,6.48,1.24a6.734,6.734,0,0,0,.7-1.51c1.9-5.68-1.37-15.62,7.2-17.86-6.83-.11-5.69-4.32-5.39-7.89.61-7.33,5.61-1.11,7.95.78,1.94-6.44,8.27-10.62,12-10.53,10.29.25,6.61,11.3,10.89,16.77-4.65,8.37-13.81,11.39-20.75,17.06h0c3.26,12.09,17.48,10,25.78,6.12,4.33-2,9-3.33,13.55-.18h0c3.26-8.43,10-12.32,14.06-9.79,6.81,4.29,15.84,2,22.27,5.11h0c.26-12.5,4-24.47,6.72-36.63.32-1.45,2-4.83-1.71-5.35-5.55.54-3.64,9.16-9.88,8.59-5.84-5.11.56-8,2.06-11.07-4.73-3.24-5.29-7.6-5.32-12.46-.08-13.73,3.59-27,4.84-40.61,1.49-16.21-2.08-31.92-8.77-46.2h0a24.81,24.81,0,0,0-11.15,9.74c-4.18-5.09-8.94-5.1-14.83-4.68s-11.86,1.77-18.19.84a19.07,19.07,0,0,0-12,2.37,35.671,35.671,0,0,0-7.42,5.5c-5.47,5.13-7.25,11.92-10.63,17.79C289.66,594,277.73,598,277,608.32c-10.66-2.11-11.14,11.09-20.64,11.91,13.65,8.95,7,19.78,5.53,29.66,3.95,4.08,10.09,2,14.23,5.26-.8,3.6-5,4.67-3.9,10,1.26,6-3.25,9.61-9.35,10.47h0c0,5.27,5.63,7.53,2.38,11.89" transform="translate(-256.36 -568.58)" fill="#a3bafc"/>
        <text id="text_gyeongsang_n" data-name="text_gyeongsang_n" transform="translate(74.64 51.4)" fill="#333" font-size="14" font-family="MalgunGothic, Malgun Gothic"><tspan x="-28" y="0">경상북도</tspan><tspan y="0" font-family="SpoqaHanSansJP-Regular, SpoqaHanSansJP"></tspan><tspan font-family="SpoqaHanSansJP-Regular, SpoqaHanSansJP"><tspan x="-29.239" y="16">15,754</tspan><tspan y="16" font-family="MalgunGothic, Malgun Gothic">명</tspan></tspan></text>
      </g>
      <g id="jeolla_n" transform="translate(533.64 871.47)">
        <path id="Path_24" data-name="Path 24" d="M262.84,675.59c-.62.08-1.25.14-1.9.17-5.33.26-13.38-2-18.27-3.56,1.11,3.58.8,5.95-3.08,5.44-3.52-.46-5.83,1.22-8.81,2.48-5.61-3-8.14-8.44-10-15.47-11.5,11.41-21.38,4.09-31.72-2.2-4.53,9-11.17,13.69-19,15.73-2.94.77-8,.71-11.24.81-2,8.36,4.89,9.64,10.81,10.08,2.38.17,1.86,4.89,5.56,8.15-3.53-.16-10-.76-12.08,1.12-3.25,3,1.19,6.73-11.18,12.21,1.78,6.22,10.15,3.78,13.87,9-9.6-1.11-14.17,5.47-17.16,11.88h0c2.74,4.35,6.6,9.65,9.71,14.59,5.27-4.43,14-3.9,15.78-11.55,1.66-7,6.33-4.32,9.82-4,2.54.24,2.23,5.81,6.33,5.13,1.15-2.36,2.28-4.6,5.6-4.28,3.7,3.82,2.59,9.57,4.65,14.22,4.1-.72,6.61-3.39,11.53-.93,4.73,2.36,13.87,5.92,16.22-7.07,3.44,5,9.15,6.2,12.24,9.59h0c2.94-10,11.35-16.41,2.3-24.46-.53-.47-.07-2.06-.07-3.13,0-14.31,7.85-26.26,22.45-32.1,3.25-4.36-2.38-6.62-2.38-11.89" transform="translate(-148.64 -662.45)" fill="#a1b4f9"/>
        <text id="text_jeolla_n" data-name="text_jeolla_n" transform="translate(60.36 33.53)" fill="#333" font-size="14" font-family="MalgunGothic, Malgun Gothic"><tspan x="-28" y="0">전라북도</tspan><tspan y="0" font-family="SpoqaHanSansJP-Regular, SpoqaHanSansJP"></tspan><tspan font-family="SpoqaHanSansJP-Regular, SpoqaHanSansJP"><tspan x="-25.067" y="16">7,713</tspan><tspan y="16" font-family="MalgunGothic, Malgun Gothic">명</tspan></tspan></text>
      </g>
      <g id="daegu" transform="translate(687.23 878)">
        <path id="Path_7" data-name="Path 7" d="M314.13,711.05c6.94-5.67,16.1-8.69,20.75-17.06-4.28-5.47-.6-16.52-10.89-16.77-3.71-.09-10,4.09-12,10.53-2.34-1.89-7.34-8.11-7.95-.78-.3,3.57-1.44,7.78,5.39,7.89-8.57,2.24-5.3,12.18-7.2,17.86h0c2.14,2,4.9,6.09,7.73,2.48A26.7,26.7,0,0,1,314.13,711.05Z" transform="translate(-302.23 -668.98)" fill="#b9cbff"/>
        <text id="text_daegu" data-name="text_daegu" transform="translate(36.77 15)" fill="#333" font-size="14" font-family="MalgunGothic, Malgun Gothic"><tspan x="-14" y="0">대구</tspan></text>
      </g>
      <g id="ulsan" transform="translate(736.7 915.497)">
        <path id="Path_27" data-name="Path 27" d="M370.53,737.22c2,2,4,4,5.82,6h0a54,54,0,0,1,12.74-17.3c1.09-1,1.3-3.51,1.1-5.23a58.659,58.659,0,0,1-.4-8.34h0c-6.43-3.07-15.46-.82-22.27-5.11-4-2.53-10.8,1.36-14.06,9.79a28,28,0,0,0-1.76,7.86C358.83,726.82,365,731.83,370.53,737.22Z" transform="translate(-351.7 -706.477)" fill="#85a1f2"/>
        <text id="text_ulsan" data-name="text_ulsan" transform="translate(67.3 24.503)" fill="#333" font-size="14" font-family="MalgunGothic, Malgun Gothic"><tspan x="-22" y="-3">울산</tspan></text>
      </g>
      <g id="gyeongsang_s" transform="translate(625.54 896.5)">
        <path id="Path_29" data-name="Path 29" d="M254.81,780.27a18.51,18.51,0,0,1,.2-6.41c.47-3.08-3.57-5.9-5.85-8.26-3.52-3.63-6.33-7.33-6.49-12.86a8.21,8.21,0,0,0-2.13-5.57h0c2.94-10,11.35-16.41,2.3-24.46-.53-.47-.07-2.06-.07-3.13,0-14.31,7.85-26.26,22.45-32.1,2.26,6.35,9.16,7.56,15.62,8.85,5.78,1.14,6.57,7.93,6.7,14.89.06,3,6.16,2.36,7.53,1.77,2.73-1.17,4.22,1.62,6.48,1.24a6.732,6.732,0,0,0,.7-1.51h0c2.14,2,4.9,6.09,7.73,2.48a26.7,26.7,0,0,1,4.15-4.15h0c3.26,12.09,17.48,10,25.78,6.12,4.33-2,9-3.33,13.55-.18h0a28,28,0,0,0-1.76,7.86c7.13,2,13.32,7,18.83,12.37l.31-.08c-14.06,3.78-15.28,15.06-26.11,17.33-3.59.76-10.34,5.56-7.06,14.6h0a25.26,25.26,0,0,1-5.05-.61c-5.06-1.11-7.77.55-11.83,4.6l-5.3-8.21c-1.86,1-3.16,1.41-3.16,1.8,0,6.43-5.5,11.42-4.45,18.2.67,4.3-3.79,4-5.13,3-9.94-7.3-8.25,1.88-10.25,7.65-1.89-10.84-14.57-12.38-16.13-22.3-4.37-1.2-5.89,2.8-8.37,4.22C260.79,781.62,255.83,784.78,254.81,780.27Z" transform="translate(-240.54 -687.48)" fill="#9fa9f2"/>
        <text id="text_gyeongsang_s" data-name="text_gyeongsang_s" transform="translate(49.46 51.5)" fill="#333" font-size="14" font-family="MalgunGothic, Malgun Gothic"><tspan x="-28" y="0">경상남도</tspan><tspan y="0" font-family="SpoqaHanSansJP-Regular, SpoqaHanSansJP"></tspan><tspan font-family="SpoqaHanSansJP-Regular, SpoqaHanSansJP"><tspan x="-29.239" y="16">10,631</tspan><tspan y="16" font-family="MalgunGothic, Malgun Gothic">명</tspan></tspan></text>
      </g>
      <g id="busan" transform="translate(721.796 946.12)">
        <path id="Path_28" data-name="Path 28" d="M337.67,769.07a15.9,15.9,0,0,0,6.56-1.21c1.84-.72,2.67-3.42,4.35-4.72.37,2.58-.26,9.67,1.93,9.17,2.65-.61,3.86-6.53,6.38-9.17s6.41-3.48,9.84-3.44c2.29,0,3.53-1.53,4.33-3.74a129.466,129.466,0,0,1,5.29-12.78h0c-1.86-1.95-3.79-4-5.82-6l.31-.08c-14.06,3.78-15.28,15.06-26.11,17.33-3.59.76-10.34,5.56-7.06,14.6Z" transform="translate(-336.796 -737.1)" fill="#868ecc"/>
        <text id="text_busan" data-name="text_busan" transform="translate(39.204 45.88)" fill="#333" font-size="14" font-family="MalgunGothic, Malgun Gothic"><tspan x="3" y="-21">부산</tspan></text>
      </g>
      <g id="jeolla_s" transform="translate(517.738 938.757)">
        <path id="Union_1" data-name="Union 1" d="M-57.775-763.565c.93-6.8-.38-11.45-8.38-14.25-6.85-2.41-9.44-15.12-6.19-20.06.565-.89,1.566.089,2.712,1.067,1.081.924,2.291,1.848,3.389,1.2,4.27-2.52,6.13-7.96,4.919-10.57-4.119-8.841-.64-15.6,4-22.19-2.53-3.37-6.73-6.47-6.41-9,.619-4.79-5.441-4.64-4.441-10,2.89-3.42,6.511-7.59,8.89-13.31.47-1.08.94-2.22,1.47-3.35,2.71,4.35,6.6,9.65,9.71,14.59,5.27-4.43,13.971-3.9,15.781-11.55,1.66-7,6.33-4.33,9.82-4,2.54.24,2.229,5.81,6.33,5.13,1.15-2.36,2.28-4.6,5.6-4.279,3.65,3.82,2.59,9.57,4.65,14.22,4.1-.72,6.61-3.39,11.53-.931,4.73,2.361,13.87,5.93,16.22-7.07,3.44,5,9.15,6.2,12.24,9.59a8.21,8.21,0,0,1,2.13,5.57c.16,5.531,2.97,9.23,6.49,12.86,2.28,2.4,6.32,5.18,5.86,8.26a18.5,18.5,0,0,0-.2,6.41c-3.62.66-3.64,6.18-13.91,6.18,1.679,5.3,3.473,4.922,5.731,4.543a7.019,7.019,0,0,1,3.679.106c3.86,1.34,3.01,3.96,3.15,6.57.16,3.02-.84,4.83-4.28,4.29-6.719-1.06-3.38,8.02-9.49,8.66-6.8-5.75,4.58-16.179-5.6-21.109l-7.44,1.2c-3.457,3.748-.843,7.984-3.645,12.351,2.726,3.66,8.177,6.57,9.524,12.389-7.809,1.1-6.06,14.25-16.5,12-.66-8.09-9.42-6.079-14.48-7.529,1.52-7.07,12.93-9.3,12.93-20.41h-.83c-6.29.6-11.61,6.16-16.88,11-1.95,1.85-11,19.94-12,26.85-1.22-1.99-4.37-4.389-6.521-3.389-4.39,2.11-6.69,5-6.9-.18,0-2.2,3.62-4.25,4.4-6,1.8-4.02-.259-7.75-.11-10.62s-.09-6.39-1.52-5.87c-1.04.34-5.23,13.48-5.23,18.34a8.878,8.878,0,0,1-4.9.779c-.974-.109-1.574-.218-2.3.64-2.29,2.7-.65,8.05-2.29,11.61-.582,1.245-1.635,1.2-2.977,1.164a10.6,10.6,0,0,0-2.182.1C-53.415-755.734-58.555-757.875-57.775-763.565Zm70.842-30.284c-1.59-1-3.183-2.15-4.767-2.148C9.884-795.994,11.478-794.839,13.067-793.849ZM-9.985-834c-2.97-5.089-6.15-10.789-11.41-10.46-1.264.079-2.585.066-3.93.052-5.075-.05-10.48-.1-14.289,4.848-3.01,3.92-4.3,6.87,2.139,8.68,5,1.391,9.77,6.22,16.061,3.11C-14.414-824.174-13.234-830.284-9.985-834Z" transform="translate(73.737 865.757)" fill="#9ca0ee"/>
        <text id="text_jeolla_s" data-name="text_jeolla_s" transform="translate(67.262 62.243)" fill="#333" font-size="14" font-family="MalgunGothic, Malgun Gothic"><tspan x="-50" y="0">전라남도</tspan><tspan y="0" font-family="SpoqaHanSansJP-Regular, SpoqaHanSansJP"></tspan><tspan font-family="SpoqaHanSansJP-Regular, SpoqaHanSansJP"><tspan x="-50" y="16">12,376</tspan><tspan y="16" font-family="MalgunGothic, Malgun Gothic">명</tspan></tspan></text>
      </g>
      <g id="gwangju" transform="translate(499 952)">
        <path id="Path_9" data-name="Path 9" d="M185.06,767.72c7,3.6,8.18-2.51,11.43-6.23-3-5.09-6.15-10.79-11.41-10.46-6,.38-13.4-1.36-18.22,4.9-3,3.92-4.3,6.87,2.14,8.68,5,1.4,9.77,6.22,16.06,3.11" transform="translate(-114 -742.98)" fill="#7f83d4"/>
        <text id="text_gwangju" data-name="text_gwangju" transform="translate(14 15)" fill="#333" font-size="14" font-family="MalgunGothic, Malgun Gothic"><tspan x="70" y="7">광주</tspan></text>
      </g>
      <g id="jeju" transform="translate(527.877 1087.046)">
        <path id="Path_6" data-name="Path 6" d="M143.38,884.33a59.76,59.76,0,0,0,3.28,9.58c4,8.43,10.11,13.82,20.22,11.78,7.78-1.57,16,0,23.52-3.18,1.32-4,2.64-7.92,4-12C179.72,875.71,164,872.6,143.38,884.33Z" transform="translate(-143.38 -877.168)" fill="#8c89d4"/>
        <text id="text_jeju" data-name="text_jeju" transform="translate(25.123 54.954)" fill="#333" font-size="14" font-family="MalgunGothic, Malgun Gothic"><tspan x="-21" y="0">제주도</tspan></text>
      </g>
      <g id="ulleung" transform="translate(857 690)">
        <path id="Path_32" data-name="Path 32" d="M486.39,528.25c2.71-4.74,13.34-7.78,12.67-1.78s-3.33,10-5.11,9.12S485.18,530.37,486.39,528.25Z" transform="translate(-472 -480.98)" fill="#86aee9"/>
        <text id="text_ulleung" data-name="text_ulleung" transform="translate(21 15)" fill="#333" font-size="14" font-family="MalgunGothic, Malgun Gothic"><tspan x="-21" y="0">울릉도</tspan></text>
      </g>
      <g id="dokdo" transform="translate(948 703)">
        <path id="Path_33" data-name="Path 33" d="M573.3,541c3-2.19,8-6.3,8.76-3.08,1,3.93-2,5.72-3.22,5.78C576.73,543.8,570.9,542.76,573.3,541Z" transform="translate(-563 -493.98)" fill="#6270d5"/>
        <text id="text_dokdo" data-name="text_dokdo" transform="translate(14 15)" fill="#333" font-size="14" font-family="MalgunGothic, Malgun Gothic"><tspan x="-14" y="0">독도</tspan></text>
      </g>
    </g>
  </g>
</svg>
