<svg xmlns="http://www.w3.org/2000/svg" xmlns:xlink="http://www.w3.org/1999/xlink" width="1300" height="1400" viewBox="0 0 1300 1400">
  <defs>
    <clipPath id="clip-path">
      <rect id="Rectangle_2" data-name="Rectangle 2" width="1300" height="1400" transform="translate(470.07 310.223)" fill="none"/>
    </clipPath>
  </defs>
  <g id="Group_7" data-name="Group 7" transform="translate(-778.249 -338.397)">
    <g id="Group_6" data-name="Group 6" transform="translate(308.179 28.173)" clip-path="url(#clip-path)">
      <g id="Group_5" data-name="Group 5" transform="translate(-1849.798 -521.029)">
        <g id="Group_2" data-name="Group 2" transform="translate(3103.331 808.214)">
          <path id="Path_44" data-name="Path 44" d="M1482.626,524.164" transform="translate(-698.625 49.14)" fill="#d0d7d9"/>
          <path id="Path_45" data-name="Path 45" d="M1567.211,807.878c1.288,11.943-38.736,23.01-44.1,33.757-5.167,10.35-34.049,29.694-41.275,38.726-14.268,17.836-.836,25.067-1.515,36.617-1.891,32.368-47.914,29.883-58.36,6.7-6.876-15.262-57.073,4.585-91.724,17.58-18.222,6.834-73.2-10.423-91.214-3.057-11.442,4.679-41.091,36.721-49.683,45.607-31.372,32.441-50.338,35.251-93.507,48.409-6.842,2.087-17.215,15.354-15.031,22.167,1.379,4.308,17,23.414,21.4,24.46,38.246,9.082,68.509,3.147,106.755,12.229-2.587-12.122-16.341-17.17-16.815-29.555-.25-6.525-1.473-13.683,4.976-14.707s12.949.869,19.365,2.089c20.954,3.985,45.358-1.853,65.853-7.765,26.5-7.642,46.325-24.2,68.792-31.337,27.183-8.636,23.561-.782,50.193,9.426,2.615,1,25.706-2.564,26.4.148.791,3.083-1.765,5.883-3.744,8.374-11.084,13.961-24.188,37.34-12.469,56.45,8.346,13.607,19.875,38.473,44.078,37.2s33.537-39.477,42.175-51.993c10.776-15.617,31.174-23.945,49.8-20.333.127-17.1,55.1-48.345,52.6-65.258C1597.107,963.168,1565.922,795.935,1567.211,807.878Z" transform="translate(-994.138 -35.041)" fill="#d0d7d9"/>
          <path id="Path_46" data-name="Path 46" d="M1136.891,860.833c23.666-7.134,45.2-24.84,52.435-41.084,7.92-17.772,19.486-13.846,26.721-10.654s21.717,3.635,29.088.768c8.013-3.118,20.732-25.822,34.151-29.8,15.2-4.506,23.169-1.1,38.306,3.617,9.705,3.026,19.23,8.289,24.566,16.943s5.194,21.181-2.346,28c-6.9,6.24-17.5,6.194-25.418,11.076-11.589,7.142-11.157,21.643-10.649,37.184-12.828-8.277-20.557-17.776-35.647-20.1s-31.953,1.681-41.641,13.48c-10.64,12.958-7.42,31.938-20.805,42.033-9.046,6.822-16.387,6.494-27,2.547-7.708-2.864-12.007-13.942-11.463-41.275C1167.4,862.9,1135.312,860.793,1136.891,860.833Z" transform="translate(-952.743 235.644)" fill="#d0d7d9"/>
          <path id="Path_47" data-name="Path 47" d="M1137.9,1022.78c6.879-10.191,27.442-7.059,30.574-25.479,1.936-11.383,2.866-37.7,5.606-48.918,4.717-19.306,16.1-31.967,28.937-47.142,3.091-3.655,11.8-27-6.77-41.525-3.118-2.436-17,.562-18.6-3.057-3.822-8.662,18.347-17.552,12.995-29.045-3.39-7.28-14.342-7.3-20.125-1.728-10.144,9.773-15.588,4.988-17.3,4.4-7.245-2.5-13.42-25.038-40.031-30.888-21.146-4.648-18.208,23.739-53.5,35.864-11.976,4.114-34.906,16.051-27.517,43.823,4.1,15.4,26.538,21.667,38.728,24.969,2.83.767,10.5-3.9,6.032-9.381-7.307-8.964-6.069-27.42-.682-29.092,7.389-2.293,15.323,13.334,18.6,22.422,5.187,14.381,8.053,34.08,4.842,43.058-2.7,7.547-19.557,12.429-24.715,21.912a44.585,44.585,0,0,0-3.312,32.613c1.707,5.642,9.577,10.39,11.211,16.053s-18.57,13.675-17.58,17.58c1.784,7.057,20.973,13.8,30.064,12.484,3.347-.484,8.918-4.332,8.409-8.662-.417-3.539-5.35-13.5-4.332-19.11,1.535-8.444,7.35-18.159,11.466-11.974,3.083,4.634.3,19.084-1.528,29.3-1.785,9.936-.181,25.411,8.662,25.224C1122.625,1046.377,1132.639,1030.566,1137.9,1022.78Z" transform="translate(-1030.723 251.028)" fill="#d0d7d9"/>
        </g>
        <g id="Group_3" data-name="Group 3">
          <path id="Path_51" data-name="Path 51" d="M565.226,610.255c-18.246,45.64,132.117,845.97,156.474,862.888,28.105,19.516,77.831,31.132,106.935,5.416,25.633-22.654,53.945-33.473,85.459-46.787l.187-.069c18.022-13.676,73.27-18.812,90.5-57.526,10.867-24.415,6.879-73.556-9.708-94.511s-58.1-32.593-59.43-59.286c-1.714-34.731-27.7-69.127-38.027-105.053-10.94-38.074-92.865-48.153-96.692-69.173s150.439-158.447,208.292-175.8c34.4-10.319,27.257,25.26,41.658,7.26,3.061-3.822,11.466-33.339,18.728-47.009,10.394-19.568-61.618-6.277-102.813-20.636-13.605-4.743-35.269-26.081-49.678-25.989-26.58.167-47.415,52.392-72.236,61.911s-74.4-13.664-55.418-42.8c16.436-25.224-3.5-41.738-18.227-43.268-14.875-1.542-34.217,2.495-49.038.507-20.093-2.693-36.778-15.866-39.356-35.968s6.1-59.567,26.365-59.621c26.268-.069,28.284,19.875,75.3,6.114,7.781-2.278,17.845-17.068,34.663-60.6,24.233-62.706,51.651-162.24,78.472-262.9C853.582,370.73,572.686,591.579,565.226,610.255Z" transform="translate(1496.09 727.416)" fill="#c4cacc"/>
          <path id="Path_52" data-name="Path 52" d="M1545.27,1577.251c-29.1,25.716-78.83,14.1-106.935-5.416-24.358-16.919,104.9,316.057,139.421,281.539,8.761-8.763,36.724-52.22,43.988-62.264,7.423-10.27,11.509-26.393,20.307-51.432,7.557-21.516,54.515-21.421,60.9-43.317,17.6-60.232,34.521-83.918,37.536-119.072,1.268-14.79-27.524-12.316-42.05-33.334-4.845-7.019-23.421-15.784-43.077,4.573-5.933,6.136-37.482,8.667-29.649-11.948a14.743,14.743,0,0,1,5.2-6.185c-.062.024-.125.045-.187.069C1599.215,1543.778,1570.9,1554.6,1545.27,1577.251Z" transform="translate(779.455 628.725)" fill="#acb0b3"/>
          <path id="Path_53" data-name="Path 53" d="M502.275,269.385c35.773,7.1,114.814,703.882,148.837,717.017,38.744,14.958,49.321,28.879,50.758,70.384,41.96-16.919,78.833-30.977,104.619-65.945,29.873-40.5,96.871-32.835,107.889-7.823,2.989,6.794-3.872,34.377-9.474,39.252-36.547,31.809-69.028,51.436-62.94,73.093s45.343-13.536,44.666,1.353c-.666,14.67-32.13,25.513-44.666,33.162-14.693,8.963-8.836,31.5,26.393,16.979,60.91-25.1,64.481-56.292,124.527-80.6,28.426-11.505,92.79-18.673,98.541-15.376,3.836,2.2,4.315-9.561,17.332-19,89.5-64.932,108.835-24.932,214.659-56.988,49.708-15.057,171.988-133.649,215.49-162.026,49.142-32.056,77.593-87.414,120.3-127.639,91.708-86.368,321.749-299.882,321.379-342.2-.416-47.617-4.377-96.326-23.75-139.829C1929.861,142.624,482.371,265.436,502.275,269.385Z" transform="translate(1614.731 283.591)" fill="#dce3e6"/>
          <path id="Path_54" data-name="Path 54" d="M1752.963,484.792c-70.927,58.532-118.319,145.127-198.972,213.185-22.061,18.615-60.234,46.058-86.8,57.357s-76.812,16.674-102.532,3.553c-24.871-12.691-12.18-57.865-23.41-61.278s-38.124,32.033-63.386,63.308c-10.659,13.2-39.737,31.788-56.892,42.513,0,0-9.45.562-15.462-12.536-3.725-8.121.973-22.319.973-22.319,9.494-6.487,33.126-21.308,48.032-35.067,13.2-12.182,11.183-40.942,10.151-73.092s-16.242-57.864-21.825-91.871c30.962-13.706,54.819-42.638,82.735-44.16,23.381-1.275,56.3,23.837,79.217,19.052,14.446-3.015,7.021-19.8,16.717-42.621,8.137-19.157,42.852-50.3,46.19-70.842C1472.416,400.957,1805.244,441.647,1752.963,484.792Z" transform="translate(1953.906 307.398)" fill="#eaf0f2"/>
        </g>
      </g>
    </g>
    <g id="Rectangle_3" data-name="Rectangle 3" transform="translate(1005.249 1445.397)" fill="#f6f6f6" stroke="#ccc" stroke-width="1" opacity="0.8">
      <rect width="277" height="264" stroke="none"/>
      <rect x="0.5" y="0.5" width="276" height="263" fill="none"/>
    </g>
    <path id="Path_60" data-name="Path 60" d="M810.706,985.4c7.9-36.858,44.577-88.185,56.207-90.124s15.505-13.566,22.288-6.783,12.6,6.783,11.629,18.413.969,34.886-7.753,44.577-9.691,30.041-14.536,48.454-25.2,35.855-28.1,46.515-4.845,38.763-4.845,38.763-2.906-21.32-17.443-31.98S801.986,1026.1,810.706,985.4Z" transform="translate(289.429 591.591)" fill="#b9bdbf"/>
  </g>
</svg>
